<svg version="1.1" id="Layer_1" xmlns="http://www.w3.org/2000/svg" xmlns:xlink="http://www.w3.org/1999/xlink" x="0px" y="0px"
	 width="136" height='48' viewBox="0 0 600 238" enable-background="new 0 0 600 238" xml:space="preserve">
<path fill="#FFFFFF" opacity="1.000000" stroke="none" 
	d="
M381.000000,239.000000 
	C254.000015,239.000000 127.500031,239.000000 1.000034,239.000000 
	C1.000023,159.666687 1.000023,80.333382 1.000011,1.000055 
	C200.999954,1.000037 400.999908,1.000037 600.999878,1.000018 
	C600.999939,80.333275 600.999939,159.666550 601.000000,238.999908 
	C527.833313,239.000000 454.666656,239.000000 381.000000,239.000000 
M434.499969,187.907394 
	C482.816498,187.904694 531.133057,187.905075 579.449585,187.896713 
	C589.433228,187.894989 591.808777,185.517639 591.810547,175.524475 
	C591.817444,137.037720 591.815369,98.550972 591.812744,60.064220 
	C591.812012,49.442905 589.556152,47.226498 578.857300,47.226852 
	C392.421478,47.233028 205.985672,47.236359 19.549849,47.238670 
	C9.602057,47.238796 7.195939,49.631805 7.193907,59.656006 
	C7.186138,97.976143 7.190429,136.296280 7.190582,174.616425 
	C7.190628,185.961807 9.155662,187.906693 20.642076,187.906769 
	C158.261368,187.907700 295.880646,187.907379 434.499969,187.907394 
z"/>
<path fill="#334155" opacity="1.000000" stroke="none" 
	d="
M433.999939,187.907394 
	C295.880646,187.907379 158.261368,187.907700 20.642076,187.906769 
	C9.155662,187.906693 7.190628,185.961807 7.190582,174.616425 
	C7.190429,136.296280 7.186138,97.976143 7.193907,59.656006 
	C7.195939,49.631805 9.602057,47.238796 19.549849,47.238670 
	C205.985672,47.236359 392.421478,47.233028 578.857300,47.226852 
	C589.556152,47.226498 591.812012,49.442905 591.812744,60.064220 
	C591.815369,98.550972 591.817444,137.037720 591.810547,175.524475 
	C591.808777,185.517639 589.433228,187.894989 579.449585,187.896713 
	C531.133057,187.905075 482.816498,187.904694 433.999939,187.907394 
M247.499908,178.804382 
	C359.094147,178.804382 470.688385,178.804382 582.345703,178.804382 
	C582.345703,137.701492 582.345703,97.170731 582.345703,56.638573 
	C393.542084,56.638573 205.141357,56.638573 16.664749,56.638573 
	C16.664749,97.494881 16.664749,138.027390 16.664749,178.804382 
	C93.538155,178.804382 170.019012,178.804382 247.499908,178.804382 
z"/>
<path fill="#FBFBFB" opacity="1.000000" stroke="none" 
	d="
M246.999893,178.804382 
	C170.019012,178.804382 93.538155,178.804382 16.664749,178.804382 
	C16.664749,138.027390 16.664749,97.494881 16.664749,56.638573 
	C205.141357,56.638573 393.542084,56.638573 582.345703,56.638573 
	C582.345703,97.170731 582.345703,137.701492 582.345703,178.804382 
	C470.688385,178.804382 359.094147,178.804382 246.999893,178.804382 
M496.219391,112.046753 
	C496.009827,112.087059 495.800293,112.127373 494.727509,112.330124 
	C482.009674,112.372581 482.010437,112.372841 477.816193,124.651161 
	C477.655762,125.120850 477.426270,125.567505 477.274780,126.039597 
	C474.769684,133.846527 472.271912,141.655777 469.684814,149.738693 
	C488.514557,149.738693 506.716187,149.738693 525.503174,149.738693 
	C519.430054,130.093597 513.493591,110.843719 507.484436,91.616539 
	C507.235199,90.819000 506.324005,89.658485 505.692505,89.639839 
	C500.334991,89.481628 494.970795,89.549423 489.385468,89.549423 
	C492.077515,97.636436 494.467499,104.816040 496.219391,112.046753 
M236.065887,112.673851 
	C232.429428,112.563538 228.779068,112.231308 225.163712,112.457809 
	C223.815521,112.542290 221.748779,113.657974 221.368729,114.768532 
	C217.422241,126.301147 213.753235,137.928741 209.939377,149.739899 
	C228.663101,149.739899 246.883804,149.739899 265.149689,149.739899 
	C265.149689,148.994202 265.266968,148.476532 265.132812,148.035278 
	C259.468414,129.403214 253.806763,110.770134 248.029892,92.172867 
	C247.711121,91.146614 246.446274,89.718727 245.565414,89.677330 
	C240.483734,89.438530 235.385086,89.560883 229.770721,89.560883 
	C231.079193,93.549110 232.271881,96.920624 233.286728,100.344856 
	C234.542953,104.583611 235.651672,108.866074 236.877792,113.081429 
	C236.877792,113.081429 236.931641,113.033409 236.065887,112.673851 
M388.216827,88.575630 
	C373.224457,90.481644 362.174591,102.654732 361.478180,118.032242 
	C360.740814,134.313095 370.389130,147.021515 385.896454,150.177689 
	C398.251373,152.692276 408.917450,149.535614 416.361450,139.275742 
	C424.717377,127.759087 425.267395,115.022148 418.218475,102.716347 
	C411.907837,91.699356 401.503876,87.580582 388.216827,88.575630 
M303.472778,150.002884 
	C307.083954,150.002884 310.695129,150.002884 314.480011,150.002884 
	C314.480011,129.589142 314.480011,109.733055 314.480011,89.752151 
	C309.010620,89.752151 303.951843,89.752151 298.366821,89.752151 
	C298.366821,105.013618 298.366821,119.903931 298.366821,135.136612 
	C296.039978,135.136612 294.239990,135.141754 292.440033,135.135696 
	C285.393127,135.112000 284.610046,134.377731 284.587036,127.495392 
	C284.554749,117.835884 284.570587,108.176208 284.566528,98.516609 
	C284.565308,95.604813 284.566315,92.693024 284.566315,89.700417 
	C278.673706,89.700417 273.573517,89.700417 268.087585,89.700417 
	C268.087585,104.791084 267.453796,119.600220 268.300995,134.324142 
	C268.908661,144.885666 275.795013,149.951859 286.493896,149.996475 
	C291.823242,150.018692 297.152740,150.002319 303.472778,150.002884 
M85.522255,88.141357 
	C83.431358,89.140129 81.432198,90.467072 79.233887,91.081573 
	C69.000259,93.942238 58.831059,97.273079 48.406761,99.140182 
	C39.172237,100.794167 35.468616,107.202553 32.372925,114.455879 
	C31.772146,115.863525 33.151878,119.065445 34.583485,120.087708 
	C35.705006,120.888565 38.852055,120.212372 40.140293,119.090912 
	C41.923943,117.538200 42.605629,114.790741 44.143826,112.861572 
	C45.292679,111.420723 46.883102,109.874275 48.566162,109.398804 
	C54.800934,107.637466 61.155415,106.299736 67.465286,104.804398 
	C78.870117,102.101654 89.831711,98.736984 98.600761,90.108513 
	C101.073906,87.675026 105.383514,86.170280 108.949707,85.966034 
	C118.565849,85.415291 128.246368,85.540154 137.876892,85.958923 
	C140.806702,86.086319 144.349350,87.315735 146.420654,89.289757 
	C154.270386,96.770851 163.698975,99.598747 174.121704,100.067978 
	C178.656464,100.272133 181.517609,102.493355 183.183212,106.601364 
	C184.369751,109.527794 185.273666,112.722794 187.136032,115.162613 
	C188.227188,116.592087 191.370346,117.817207 192.824463,117.231743 
	C194.335144,116.623520 196.005753,113.554100 195.741425,111.850319 
	C193.721481,98.829819 185.576843,91.532516 172.325073,90.073570 
	C166.722580,89.456757 160.970337,89.124870 156.605148,84.762566 
	C149.819946,77.981834 141.533325,75.357788 132.079742,75.728004 
	C127.591324,75.903786 123.072540,76.008728 118.598030,75.701347 
	C105.911087,74.829803 94.886482,78.156387 85.522255,88.141357 
M131.029358,108.600418 
	C124.371826,108.677673 117.714119,108.829430 111.056816,108.813049 
	C103.006401,108.793236 96.344147,111.813774 90.241646,117.003258 
	C86.780594,119.946487 82.721405,122.703232 78.458733,124.082558 
	C68.678185,127.247368 58.727879,130.222977 48.619701,131.941086 
	C39.375774,133.512268 35.628708,139.883377 32.432587,147.074493 
	C31.794119,148.511002 33.002472,151.929398 34.376411,152.768555 
	C35.715885,153.586670 38.420422,152.456772 40.396450,151.795868 
	C41.125237,151.552139 41.654369,150.267075 41.985386,149.352310 
	C43.807293,144.317566 47.406109,141.942551 52.652454,141.085220 
	C58.049244,140.203308 63.307522,138.503082 68.657272,137.297958 
	C79.645241,134.822769 89.980286,131.271133 98.390686,123.121574 
	C100.806046,120.781136 104.787666,119.249321 108.204597,118.914986 
	C115.797218,118.172066 123.493408,118.566307 131.135178,118.224518 
	C138.658020,117.888046 144.890182,120.151161 150.776276,125.053314 
	C154.426529,128.093369 159.391495,129.729141 163.982437,131.402130 
	C166.887146,132.460632 170.180771,132.721344 173.315918,132.816910 
	C178.456955,132.973648 181.666687,135.387329 183.485504,140.073898 
	C184.565216,142.855988 185.413559,145.915985 187.224991,148.156479 
	C188.337936,149.533005 191.523209,150.610168 192.955002,149.972885 
	C194.441666,149.311142 196.023636,146.205673 195.693771,144.539047 
	C192.934311,130.597092 185.871307,124.743187 171.683411,122.789070 
	C166.753662,122.110085 161.102097,120.911263 157.449951,117.914764 
	C149.820511,111.654984 141.798935,108.043037 131.029358,108.600418 
M534.532593,149.989883 
	C537.605286,149.989883 540.678040,149.989883 544.274109,149.989883 
	C544.274109,141.885498 544.274109,134.645874 544.274109,127.135399 
	C547.124451,127.135399 549.440979,127.172012 551.756042,127.129112 
	C562.163635,126.936226 570.082092,119.130028 570.303955,108.870102 
	C570.529846,98.427155 563.266602,90.271393 552.739807,89.678528 
	C545.599243,89.276375 538.422668,89.356522 531.268616,89.513390 
	C530.124084,89.538490 528.131531,91.016823 528.041138,91.966949 
	C527.671387,95.855209 527.886902,99.799118 527.886902,104.119576 
	C534.737915,104.119576 540.870667,104.075165 547.002258,104.139366 
	C549.831726,104.168991 553.006042,103.963120 553.035706,108.184021 
	C553.065002,112.367310 550.010986,112.325348 547.094666,112.336273 
	C540.820496,112.359772 534.546143,112.343483 528.185425,112.343483 
	C528.185425,125.346954 528.185425,137.556580 528.185425,149.991272 
	C530.274780,149.991272 531.923523,149.991272 534.532593,149.989883 
M440.140411,94.528984 
	C428.021942,104.212265 424.092072,118.352425 429.793793,131.757263 
	C435.682068,145.600647 448.438599,151.795517 466.877808,149.535782 
	C466.877808,144.890945 466.877808,140.199356 466.877808,135.545547 
	C449.742981,133.713470 444.457764,130.273010 444.783752,120.363914 
	C444.907654,116.597893 446.084503,112.300194 448.237915,109.285011 
	C452.735474,102.987488 460.193726,104.125938 466.981628,104.052795 
	C466.981628,99.030418 466.981628,94.450821 466.981628,89.692398 
	C457.710297,89.313492 448.739777,88.784966 440.140411,94.528984 
M357.002075,148.261612 
	C357.002075,143.996048 357.002075,139.730484 357.002075,135.129684 
	C353.453644,135.129684 350.491180,135.141235 347.528839,135.127319 
	C340.977997,135.096558 339.925537,134.077393 339.908081,127.725960 
	C339.894531,122.787178 339.905365,117.848335 339.905365,112.321243 
	C334.935577,112.321243 330.466583,112.074005 326.062103,112.497650 
	C324.981049,112.601631 323.361511,114.849205 323.276489,116.192734 
	C322.951477,121.328270 322.861816,126.517380 323.222504,131.648651 
	C323.776886,139.534622 326.368866,147.078949 334.899445,148.753036 
	C341.986328,150.143799 349.541443,149.148849 357.002075,148.261612 
M352.472351,89.456985 
	C341.911469,89.456985 331.350616,89.456985 320.842133,89.456985 
	C320.842133,94.787857 320.842133,99.221794 320.842133,103.817993 
	C333.620819,103.817993 346.153931,103.817993 358.717072,103.817993 
	C358.717072,98.944847 358.717072,94.381638 358.717072,89.459648 
	C356.751709,89.459648 355.108154,89.459648 352.472351,89.456985 
z"/>
<path fill="#334155" opacity="1.000000" stroke="none" 
	d="
M388.628906,88.447594 
	C401.503876,87.580582 411.907837,91.699356 418.218475,102.716347 
	C425.267395,115.022148 424.717377,127.759087 416.361450,139.275742 
	C408.917450,149.535614 398.251373,152.692276 385.896454,150.177689 
	C370.389130,147.021515 360.740814,134.313095 361.478180,118.032242 
	C362.174591,102.654732 373.224457,90.481644 388.628906,88.447594 
M401.003448,133.549881 
	C406.399841,126.994110 406.324341,119.511429 404.249207,111.931053 
	C401.809052,103.017380 393.531616,99.695000 385.546234,104.099754 
	C379.705505,107.321518 376.984863,117.077354 379.470398,125.887238 
	C382.542206,136.775253 390.714233,139.949112 401.003448,133.549881 
z"/>
<path fill="#334155" opacity="1.000000" stroke="none" 
	d="
M302.977478,150.003143 
	C297.152740,150.002319 291.823242,150.018692 286.493896,149.996475 
	C275.795013,149.951859 268.908661,144.885666 268.300995,134.324142 
	C267.453796,119.600220 268.087585,104.791084 268.087585,89.700417 
	C273.573517,89.700417 278.673706,89.700417 284.566315,89.700417 
	C284.566315,92.693024 284.565308,95.604813 284.566528,98.516609 
	C284.570587,108.176208 284.554749,117.835884 284.587036,127.495392 
	C284.610046,134.377731 285.393127,135.112000 292.440033,135.135696 
	C294.239990,135.141754 296.039978,135.136612 298.366821,135.136612 
	C298.366821,119.903931 298.366821,105.013618 298.366821,89.752151 
	C303.951843,89.752151 309.010620,89.752151 314.480011,89.752151 
	C314.480011,109.733055 314.480011,129.589142 314.480011,150.002884 
	C310.695129,150.002884 307.083954,150.002884 302.977478,150.003143 
z"/>
<path fill="#334155" opacity="1.000000" stroke="none" 
	d="
M236.824127,113.129662 
	C235.651672,108.866074 234.542953,104.583611 233.286728,100.344856 
	C232.271881,96.920624 231.079193,93.549110 229.770721,89.560883 
	C235.385086,89.560883 240.483734,89.438530 245.565414,89.677330 
	C246.446274,89.718727 247.711121,91.146614 248.029892,92.172867 
	C253.806763,110.770134 259.468414,129.403214 265.132812,148.035278 
	C265.266968,148.476532 265.149689,148.994202 265.149689,149.739899 
	C246.883804,149.739899 228.663101,149.739899 209.939377,149.739899 
	C213.753235,137.928741 217.422241,126.301147 221.368729,114.768532 
	C221.748779,113.657974 223.815521,112.542290 225.163712,112.457809 
	C228.779068,112.231308 232.429428,112.563538 236.316498,113.232269 
	C234.634888,120.760170 232.702667,127.729652 230.685669,135.005005 
	C235.955627,135.005005 240.378616,135.005005 245.292175,135.005005 
	C243.558136,129.936859 242.020798,125.128334 240.253326,120.405952 
	C239.316635,117.903282 237.980133,115.550247 236.824127,113.129662 
z"/>
<path fill="#334155" opacity="1.000000" stroke="none" 
	d="
M496.857483,111.995651 
	C494.467499,104.816040 492.077515,97.636436 489.385468,89.549423 
	C494.970795,89.549423 500.334991,89.481628 505.692505,89.639839 
	C506.324005,89.658485 507.235199,90.819000 507.484436,91.616539 
	C513.493591,110.843719 519.430054,130.093597 525.503174,149.738693 
	C506.716187,149.738693 488.514557,149.738693 469.684814,149.738693 
	C472.271912,141.655777 474.769684,133.846527 477.274780,126.039597 
	C477.426270,125.567505 477.655762,125.120850 477.816193,124.651161 
	C482.010437,112.372841 482.009674,112.372581 495.286560,112.631744 
	C494.151825,120.221130 492.458038,127.508881 490.751709,134.850647 
	C495.488861,134.850647 500.029266,134.850647 505.133850,134.850647 
	C502.261566,126.918907 499.559540,119.457275 496.857483,111.995651 
z"/>
<path fill="#334155" opacity="1.000000" stroke="none" 
	d="
M85.848404,87.974655 
	C94.886482,78.156387 105.911087,74.829803 118.598030,75.701347 
	C123.072540,76.008728 127.591324,75.903786 132.079742,75.728004 
	C141.533325,75.357788 149.819946,77.981834 156.605148,84.762566 
	C160.970337,89.124870 166.722580,89.456757 172.325073,90.073570 
	C185.576843,91.532516 193.721481,98.829819 195.741425,111.850319 
	C196.005753,113.554100 194.335144,116.623520 192.824463,117.231743 
	C191.370346,117.817207 188.227188,116.592087 187.136032,115.162613 
	C185.273666,112.722794 184.369751,109.527794 183.183212,106.601364 
	C181.517609,102.493355 178.656464,100.272133 174.121704,100.067978 
	C163.698975,99.598747 154.270386,96.770851 146.420654,89.289757 
	C144.349350,87.315735 140.806702,86.086319 137.876892,85.958923 
	C128.246368,85.540154 118.565849,85.415291 108.949707,85.966034 
	C105.383514,86.170280 101.073906,87.675026 98.600761,90.108513 
	C89.831711,98.736984 78.870117,102.101654 67.465286,104.804398 
	C61.155415,106.299736 54.800934,107.637466 48.566162,109.398804 
	C46.883102,109.874275 45.292679,111.420723 44.143826,112.861572 
	C42.605629,114.790741 41.923943,117.538200 40.140293,119.090912 
	C38.852055,120.212372 35.705006,120.888565 34.583485,120.087708 
	C33.151878,119.065445 31.772146,115.863525 32.372925,114.455879 
	C35.468616,107.202553 39.172237,100.794167 48.406761,99.140182 
	C58.831059,97.273079 69.000259,93.942238 79.233887,91.081573 
	C81.432198,90.467072 83.431358,89.140129 85.848404,87.974655 
z"/>
<path fill="#334155" opacity="1.000000" stroke="none" 
	d="
M131.487137,108.625580 
	C141.798935,108.043037 149.820511,111.654984 157.449951,117.914764 
	C161.102097,120.911263 166.753662,122.110085 171.683411,122.789070 
	C185.871307,124.743187 192.934311,130.597092 195.693771,144.539047 
	C196.023636,146.205673 194.441666,149.311142 192.955002,149.972885 
	C191.523209,150.610168 188.337936,149.533005 187.224991,148.156479 
	C185.413559,145.915985 184.565216,142.855988 183.485504,140.073898 
	C181.666687,135.387329 178.456955,132.973648 173.315918,132.816910 
	C170.180771,132.721344 166.887146,132.460632 163.982437,131.402130 
	C159.391495,129.729141 154.426529,128.093369 150.776276,125.053314 
	C144.890182,120.151161 138.658020,117.888046 131.135178,118.224518 
	C123.493408,118.566307 115.797218,118.172066 108.204597,118.914986 
	C104.787666,119.249321 100.806046,120.781136 98.390686,123.121574 
	C89.980286,131.271133 79.645241,134.822769 68.657272,137.297958 
	C63.307522,138.503082 58.049244,140.203308 52.652454,141.085220 
	C47.406109,141.942551 43.807293,144.317566 41.985386,149.352310 
	C41.654369,150.267075 41.125237,151.552139 40.396450,151.795868 
	C38.420422,152.456772 35.715885,153.586670 34.376411,152.768555 
	C33.002472,151.929398 31.794119,148.511002 32.432587,147.074493 
	C35.628708,139.883377 39.375774,133.512268 48.619701,131.941086 
	C58.727879,130.222977 68.678185,127.247368 78.458733,124.082558 
	C82.721405,122.703232 86.780594,119.946487 90.241646,117.003258 
	C96.344147,111.813774 103.006401,108.793236 111.056816,108.813049 
	C117.714119,108.829430 124.371826,108.677673 131.487137,108.625580 
z"/>
<path fill="#334155" opacity="1.000000" stroke="none" 
	d="
M534.052429,149.990570 
	C531.923523,149.991272 530.274780,149.991272 528.185425,149.991272 
	C528.185425,137.556580 528.185425,125.346954 528.185425,112.343483 
	C534.546143,112.343483 540.820496,112.359772 547.094666,112.336273 
	C550.010986,112.325348 553.065002,112.367310 553.035706,108.184021 
	C553.006042,103.963120 549.831726,104.168991 547.002258,104.139366 
	C540.870667,104.075165 534.737915,104.119576 527.886902,104.119576 
	C527.886902,99.799118 527.671387,95.855209 528.041138,91.966949 
	C528.131531,91.016823 530.124084,89.538490 531.268616,89.513390 
	C538.422668,89.356522 545.599243,89.276375 552.739807,89.678528 
	C563.266602,90.271393 570.529846,98.427155 570.303955,108.870102 
	C570.082092,119.130028 562.163635,126.936226 551.756042,127.129112 
	C549.440979,127.172012 547.124451,127.135399 544.274109,127.135399 
	C544.274109,134.645874 544.274109,141.885498 544.274109,149.989883 
	C540.678040,149.989883 537.605286,149.989883 534.052429,149.990570 
z"/>
<path fill="#334155" opacity="1.000000" stroke="none" 
	d="
M440.423035,94.296394 
	C448.739777,88.784966 457.710297,89.313492 466.981628,89.692398 
	C466.981628,94.450821 466.981628,99.030418 466.981628,104.052795 
	C460.193726,104.125938 452.735474,102.987488 448.237915,109.285011 
	C446.084503,112.300194 444.907654,116.597893 444.783752,120.363914 
	C444.457764,130.273010 449.742981,133.713470 466.877808,135.545547 
	C466.877808,140.199356 466.877808,144.890945 466.877808,149.535782 
	C448.438599,151.795517 435.682068,145.600647 429.793793,131.757263 
	C424.092072,118.352425 428.021942,104.212265 440.423035,94.296394 
z"/>
<path fill="#334155" opacity="1.000000" stroke="none" 
	d="
M356.945618,148.736160 
	C349.541443,149.148849 341.986328,150.143799 334.899445,148.753036 
	C326.368866,147.078949 323.776886,139.534622 323.222504,131.648651 
	C322.861816,126.517380 322.951477,121.328270 323.276489,116.192734 
	C323.361511,114.849205 324.981049,112.601631 326.062103,112.497650 
	C330.466583,112.074005 334.935577,112.321243 339.905365,112.321243 
	C339.905365,117.848335 339.894531,122.787178 339.908081,127.725960 
	C339.925537,134.077393 340.977997,135.096558 347.528839,135.127319 
	C350.491180,135.141235 353.453644,135.129684 357.002075,135.129684 
	C357.002075,139.730484 357.002075,143.996048 356.945618,148.736160 
z"/>
<path fill="#334155" opacity="1.000000" stroke="none" 
	d="
M352.968475,89.458313 
	C355.108154,89.459648 356.751709,89.459648 358.717072,89.459648 
	C358.717072,94.381638 358.717072,98.944847 358.717072,103.817993 
	C346.153931,103.817993 333.620819,103.817993 320.842133,103.817993 
	C320.842133,99.221794 320.842133,94.787857 320.842133,89.456985 
	C331.350616,89.456985 341.911469,89.456985 352.968475,89.458313 
z"/>
<path fill="#F0F0F0" opacity="1.000000" stroke="none" 
	d="
M496.538452,112.021194 
	C499.559540,119.457275 502.261566,126.918907 505.133850,134.850647 
	C500.029266,134.850647 495.488861,134.850647 490.751709,134.850647 
	C492.458038,127.508881 494.151825,120.221130 495.718201,112.550522 
	C495.800293,112.127373 496.009827,112.087059 496.538452,112.021194 
z"/>
<path fill="#F4F4F4" opacity="1.000000" stroke="none" 
	d="
M236.850952,113.105545 
	C237.980133,115.550247 239.316635,117.903282 240.253326,120.405952 
	C242.020798,125.128334 243.558136,129.936859 245.292175,135.005005 
	C240.378616,135.005005 235.955627,135.005005 230.685669,135.005005 
	C232.702667,127.729652 234.634888,120.760170 236.749359,113.412048 
	C236.931641,113.033409 236.877792,113.081429 236.850952,113.105545 
z"/>
<path fill="#FBFBFB" opacity="1.000000" stroke="none" 
	d="
M400.704102,133.783813 
	C390.714233,139.949112 382.542206,136.775253 379.470398,125.887238 
	C376.984863,117.077354 379.705505,107.321518 385.546234,104.099754 
	C393.531616,99.695000 401.809052,103.017380 404.249207,111.931053 
	C406.324341,119.511429 406.399841,126.994110 400.704102,133.783813 
z"/>
</svg>