<svg version="1.1" width='136' height='48' id="Layer_1" xmlns="http://www.w3.org/2000/svg" x="0" y="0" viewBox="0 0 284.5 76.3" xml:space="preserve"><path d="M64 58.1c0-2.3.3-5.5.6-8.8h-.2c-3.9 7.2-9.1 9.7-14.1 9.7-7 0-11.6-5.5-11.6-13.4C38.7 32.3 48 18 66.3 18c4.3 0 8.8.8 11.9 1.8l-4.1 20.4C73 46 72.3 53.4 72.5 58.1H64zm3.8-32.4c-1-.2-2.2-.4-3.9-.4-8.6 0-15.4 9.7-15.4 18.7 0 4.1 1.5 7.5 5.6 7.5 4.4 0 9.7-5.5 11.6-15.4l2.1-10.4zM91.4 19l3.1 18.8c.7 4.3 1.2 7.2 1.5 9.8h.2c1-2.4 1.9-5.1 3.8-9.3l8.4-19.3h10L104 47.9c-4.7 9.5-9.1 16.5-14.3 21.5-4.5 4.3-9.6 6.3-12.1 6.8l-2.2-8c1.8-.6 4.5-1.6 6.9-3.5 2.7-1.9 5.1-4.6 6.9-7.8.3-.6.3-1 .2-1.8L81.6 19h9.8zm63.9 39.1l4.6-24.1c1-5.5 1.6-11.6 2-15h8.1c-.2 2.7-.5 5.4-.9 8.2h.2c2.7-5.2 6.9-9.1 12.2-9.1.7 0 1.4.1 2.1.1l-1.9 9.2c-.5-.1-1.1-.1-1.8-.1-6.7 0-10.9 6.8-12.5 15.1l-3 15.8h-9.1zm25.9 0l5-27c.9-4.7 1.4-8.8 1.9-12.1h8.1l-.9 6.8h.2c3.6-5.2 8.5-7.7 13.7-7.7 6.1 0 8.8 3.9 9.2 8 3.5-5.3 8.4-8 13.9-8 5.3 0 9.5 3.5 9.5 10.5 0 1.7-.3 4.6-.6 6.7l-4.3 22.9h-9.1l4-21.9c.3-1.5.6-3.4.6-4.9 0-3.4-1.4-5.6-4.7-5.6-4.3 0-9.1 5.4-10.6 13.7l-3.5 18.7h-9.1l4.3-22.2c.2-1.6.5-3.1.5-4.6 0-2.9-.9-5.6-4.7-5.6-4.3 0-9.3 6-10.8 13.9l-3.4 18.5h-9.2zm88.5 0c0-2.3.3-5.5.6-8.8h-.2C266.2 56.5 261 59 256 59c-7 0-11.6-5.5-11.6-13.4 0-13.3 9.3-27.6 27.6-27.6 4.3 0 8.8.8 11.9 1.8l-4.1 20.4c-1.1 5.8-1.8 13.2-1.6 17.9h-8.5zm3.8-32.4c-1-.2-2.2-.4-3.9-.4-8.6 0-15.4 9.7-15.4 18.7 0 4.1 1.5 7.5 5.6 7.5 4.4 0 9.7-5.5 11.6-15.4l2.1-10.4zM37.6 7.4C34 4.6 28.7 3.6 23.7 3.6c-4.8 0-9.7.5-13 1.3L.5 58.1h9.2l3.9-20.5c1.4.2 3.1.4 5.1.4 6.4 0 12.6-1.7 17-5.1 3.9-3.1 6.9-8.3 6.9-14.7 0-4.8-1.9-8.4-5-10.8zM20 30.4c-1.9 0-3.2-.1-4.7-.4h-.2c-.4-.1-.7-.2-1.1-.3-.9-.3-1.6-.8-2.3-1.4 1.3.1 2.5-.1 3.8-.3l3.1-16.4c1.1-.3 2.9-.5 5.2-.5 5.3 0 9.4 2.1 9.4 7.9 0 6.3-5.4 11.4-13.2 11.4zm117.6 27.7L145 19h9.4l-7.5 39.1zm2.8-39.1h-9.5l.2-1.7c.9-5 3.5-9.4 10.4-9.4 3.5 0 6.4 1 8.2 1.8l2.7-7.2c-1.7-1-5.8-2.2-10-2.2C131.5.3 124 6.5 122 17.4l-.3 1.7-1.4 7.2-6 31.9h9.2l4.2-22.4 1.8-9.5h9.5l1.4-7.3z" fill="#334155"/></svg>