<svg version="1.1" id="Layer_1" xmlns="http://www.w3.org/2000/svg" xmlns:xlink="http://www.w3.org/1999/xlink" x="0px" y="0px"
	 width="136" height='80' viewBox="0 0 434 116" enable-background="new 0 0 434 116" xml:space="preserve">
<path fill="#FFFFFF" opacity="1.000000" stroke="none" 
	d="
M221.000000,1.000001 
	C292.304718,1.000000 363.609467,1.000000 434.957092,1.000000 
	C434.957092,39.622520 434.957092,78.245102 434.957092,116.933838 
	C290.435486,116.933838 145.870895,116.933838 1.153167,116.933838 
	C1.153167,78.451492 1.153167,39.902168 1.153167,1.000000 
	C71.020500,1.000000 141.041595,1.000000 211.400940,1.345799 
	C198.122879,5.044177 189.716644,13.393595 187.094223,27.327246 
	C183.808228,44.786697 180.509933,62.243862 177.189194,79.696739 
	C175.330017,89.468109 175.304642,89.357498 185.344650,89.349113 
	C188.330215,89.346619 189.649277,88.688812 190.217834,85.415939 
	C192.770248,70.723068 195.683289,56.092846 198.528931,41.109879 
	C203.404648,41.109879 208.015778,41.109879 212.936508,41.109879 
	C213.659821,37.328854 214.320572,33.874912 215.081802,29.895668 
	C209.961807,29.895668 205.528137,29.895668 200.943741,29.895668 
	C200.875458,24.361670 202.531189,19.861681 206.424210,16.629150 
	C213.546310,10.715358 221.489334,13.511920 229.407974,15.393562 
	C230.774094,11.817521 232.045349,8.489765 233.524780,4.617120 
	C229.012482,3.313981 225.006241,2.156991 221.000000,1.000001 
M414.894012,89.116257 
	C417.930786,89.062706 420.967590,89.009155 424.815552,88.744659 
	C425.025177,85.180061 425.234772,81.615463 425.762238,77.213364 
	C428.355347,61.906513 430.948425,46.599667 433.565369,31.151958 
	C432.617615,30.809263 431.716003,30.314457 430.760834,30.167389 
	C426.827728,29.561794 422.890778,28.936337 418.932892,28.543453 
	C394.133209,26.081694 373.239166,45.596264 373.899567,70.564011 
	C374.115143,78.713036 376.485962,85.922966 384.654205,89.190636 
	C393.083923,92.562912 400.640961,90.083717 406.993835,83.884834 
	C409.050537,81.877991 410.771454,79.527077 413.077393,76.828766 
	C413.077393,79.052803 413.077393,80.537209 412.910950,82.765251 
	C413.272827,84.828682 413.634735,86.892120 414.894012,89.116257 
M324.083069,28.962175 
	C314.069336,28.033844 305.693146,31.072397 298.984283,40.569962 
	C299.466034,36.267391 299.787720,33.394299 300.140656,30.241962 
	C295.947174,30.241962 292.172119,30.241962 288.055420,30.241962 
	C287.539001,33.518604 287.096283,36.781601 286.502533,40.016884 
	C283.800262,54.741207 280.969391,69.443062 278.455505,84.199135 
	C278.196045,85.722198 279.407562,88.752083 280.492310,89.048424 
	C288.882294,91.340370 291.634155,89.395302 293.007477,80.936226 
	C293.034180,80.771851 293.039001,80.603546 293.071442,80.440552 
	C294.661621,72.453049 295.828705,64.349480 297.975464,56.514355 
	C299.802826,49.844967 303.282440,43.832821 310.179901,40.937012 
	C315.415741,38.738811 319.694092,41.354427 319.974396,46.975742 
	C320.130371,50.104179 319.911743,53.317833 319.357727,56.402515 
	C317.770660,65.239105 315.910339,74.026375 314.188446,82.839088 
	C313.066071,88.583557 314.873596,90.318932 320.562225,89.062157 
	C322.624298,88.606583 324.700165,88.213516 327.098999,87.724869 
	C328.752777,78.978432 330.403198,70.165451 332.089111,61.359261 
	C333.531616,53.824371 336.013794,46.654652 342.785919,42.361393 
	C345.098114,40.895569 349.267670,40.143749 351.424377,41.278454 
	C353.534393,42.388607 355.118469,46.282608 355.220551,49.018559 
	C355.385101,53.429413 354.236755,57.908733 353.476501,62.330498 
	C351.965637,71.118111 350.341370,79.886238 348.652161,89.284592 
	C352.416138,89.284592 355.549103,89.125992 358.658051,89.330994 
	C361.534912,89.520683 362.810181,88.593025 363.167938,85.570358 
	C363.694000,81.125778 364.816101,76.754608 365.596100,72.336586 
	C367.012756,64.312332 368.572540,56.305458 369.690887,48.238411 
	C371.104279,38.043091 366.210205,29.531727 358.388916,28.979792 
	C350.716339,28.438349 343.387939,29.909342 337.871857,36.084923 
	C336.772552,37.315655 335.676361,38.549149 334.298767,40.095684 
	C332.933960,34.629391 330.149780,30.740004 324.083069,28.962175 
M65.931931,30.321424 
	C65.872459,15.736073 54.478603,5.369229 40.369911,6.830960 
	C32.782127,7.617093 25.152876,8.002963 17.359041,8.583078 
	C12.172889,35.442188 7.049753,61.974934 1.759002,89.375763 
	C6.898027,88.843735 11.392520,88.378433 15.962072,87.905365 
	C17.919113,77.875816 19.817135,68.148743 21.697983,58.509689 
	C49.484062,59.552475 62.224632,51.577415 65.931931,30.321424 
M86.653252,30.954832 
	C69.374153,37.793236 59.046528,53.617157 60.093330,71.983177 
	C60.513878,79.361626 63.169601,85.832367 70.336334,89.019226 
	C77.675125,92.282608 84.719246,90.674889 90.941147,85.874641 
	C93.147079,84.172745 94.861160,81.831482 96.789078,79.772079 
	C97.460289,79.055084 98.099243,78.307899 99.065254,77.224083 
	C99.065254,81.491150 99.065254,85.096840 99.065254,88.923172 
	C103.226028,88.923172 107.143539,88.923172 110.142273,88.923172 
	C113.340485,69.488548 116.480843,50.405533 119.676453,30.986732 
	C108.960121,27.974636 98.231766,27.146208 86.653252,30.954832 
M130.606384,30.005112 
	C129.057922,30.094667 127.509468,30.184223 125.847618,30.280336 
	C125.964394,31.491213 125.961533,32.162167 126.100693,32.802250 
	C129.597061,48.884762 133.032272,64.981277 136.672195,81.031334 
	C137.547989,84.892998 137.137955,88.083130 134.655045,91.279938 
	C129.828384,97.494377 123.866707,102.040024 116.093330,104.678833 
	C117.204430,108.654022 118.257095,112.420135 119.331932,116.265587 
	C120.530235,116.118233 121.388733,116.148941 122.148331,115.889771 
	C123.560280,115.408035 124.931396,114.793991 126.290169,114.171036 
	C136.388977,109.540993 143.742249,101.734215 149.021744,92.372993 
	C157.840286,76.736618 165.861023,60.649456 174.173294,44.728920 
	C176.605698,40.070103 178.887863,35.332844 181.552155,30.005102 
	C177.404343,30.005102 174.096161,30.235577 170.835449,29.940847 
	C167.516724,29.640875 165.883911,30.772635 164.578995,33.948009 
	C160.028229,45.021893 155.109390,55.945168 150.272156,66.899948 
	C149.568542,68.493408 148.547470,69.946709 147.337265,72.048416 
	C145.462921,60.558659 143.659515,49.803341 141.966110,39.030727 
	C140.548721,30.014042 140.605652,30.005093 130.606384,30.005112 
M247.595459,34.067436 
	C244.546570,52.310852 241.497665,70.554268 238.367294,89.285263 
	C240.293289,89.285263 241.922852,89.262459 243.551636,89.289154 
	C251.216888,89.414764 252.030884,89.439491 253.397751,81.137032 
	C254.689346,73.291855 256.147400,65.393082 258.526062,57.830467 
	C260.942505,50.147762 265.380066,43.809063 274.444916,42.429970 
	C276.055176,42.184982 278.196198,40.631687 278.742432,39.176029 
	C279.922699,36.030899 280.227356,32.557182 280.887360,29.232319 
	C271.150787,27.214132 265.451874,33.357986 259.922089,39.879349 
	C259.720459,39.462761 259.518829,39.046173 259.317200,38.629585 
	C259.601105,35.921886 259.885040,33.214188 260.221039,30.009726 
	C256.607758,30.009726 253.451996,29.756165 250.381241,30.155802 
	C249.389587,30.284859 248.621307,32.130352 247.595459,34.067436 
M230.297394,61.838417 
	C232.329208,51.417435 234.361008,40.996449 236.438171,30.342770 
	C231.385101,30.342770 226.821945,30.342770 222.159302,30.342770 
	C218.714142,48.446575 215.393524,66.255157 211.888885,84.027451 
	C211.133087,87.860184 212.399689,89.322746 216.129959,89.133423 
	C217.625214,89.057541 219.139572,88.999275 220.624237,89.145767 
	C223.954269,89.474350 225.429794,87.887558 225.983887,84.729263 
	C227.276199,77.363258 228.752396,70.029518 230.297394,61.838417 
z"/>
<path fill="#F26724" opacity="1.000000" stroke="none" 
	d="
M220.550018,1.000001 
	C225.006241,2.156991 229.012482,3.313981 233.524780,4.617120 
	C232.045349,8.489765 230.774094,11.817521 229.407974,15.393562 
	C221.489334,13.511920 213.546310,10.715358 206.424210,16.629150 
	C202.531189,19.861681 200.875458,24.361670 200.943741,29.895668 
	C205.528137,29.895668 209.961807,29.895668 215.081802,29.895668 
	C214.320572,33.874912 213.659821,37.328854 212.936508,41.109879 
	C208.015778,41.109879 203.404648,41.109879 198.528931,41.109879 
	C195.683289,56.092846 192.770248,70.723068 190.217834,85.415939 
	C189.649277,88.688812 188.330215,89.346619 185.344650,89.349113 
	C175.304642,89.357498 175.330017,89.468109 177.189194,79.696739 
	C180.509933,62.243862 183.808228,44.786697 187.094223,27.327246 
	C189.716644,13.393595 198.122879,5.044177 211.869598,1.345799 
	C214.700012,1.000000 217.400024,1.000000 220.550018,1.000001 
z"/>
<path fill="#F26724" opacity="1.000000" stroke="none" 
	d="
M324.484558,29.028049 
	C330.149780,30.740004 332.933960,34.629391 334.298767,40.095684 
	C335.676361,38.549149 336.772552,37.315655 337.871857,36.084923 
	C343.387939,29.909342 350.716339,28.438349 358.388916,28.979792 
	C366.210205,29.531727 371.104279,38.043091 369.690887,48.238411 
	C368.572540,56.305458 367.012756,64.312332 365.596100,72.336586 
	C364.816101,76.754608 363.694000,81.125778 363.167938,85.570358 
	C362.810181,88.593025 361.534912,89.520683 358.658051,89.330994 
	C355.549103,89.125992 352.416138,89.284592 348.652161,89.284592 
	C350.341370,79.886238 351.965637,71.118111 353.476501,62.330498 
	C354.236755,57.908733 355.385101,53.429413 355.220551,49.018559 
	C355.118469,46.282608 353.534393,42.388607 351.424377,41.278454 
	C349.267670,40.143749 345.098114,40.895569 342.785919,42.361393 
	C336.013794,46.654652 333.531616,53.824371 332.089111,61.359261 
	C330.403198,70.165451 328.752777,78.978432 327.098999,87.724869 
	C324.700165,88.213516 322.624298,88.606583 320.562225,89.062157 
	C314.873596,90.318932 313.066071,88.583557 314.188446,82.839088 
	C315.910339,74.026375 317.770660,65.239105 319.357727,56.402515 
	C319.911743,53.317833 320.130371,50.104179 319.974396,46.975742 
	C319.694092,41.354427 315.415741,38.738811 310.179901,40.937012 
	C303.282440,43.832821 299.802826,49.844967 297.975464,56.514355 
	C295.828705,64.349480 294.661621,72.453049 293.071442,80.440552 
	C293.039001,80.603546 293.034180,80.771851 293.007477,80.936226 
	C291.634155,89.395302 288.882294,91.340370 280.492310,89.048424 
	C279.407562,88.752083 278.196045,85.722198 278.455505,84.199135 
	C280.969391,69.443062 283.800262,54.741207 286.502533,40.016884 
	C287.096283,36.781601 287.539001,33.518604 288.055420,30.241962 
	C292.172119,30.241962 295.947174,30.241962 300.140656,30.241962 
	C299.787720,33.394299 299.466034,36.267391 298.984283,40.569962 
	C305.693146,31.072397 314.069336,28.033844 324.484558,29.028049 
z"/>
<path fill="#F26725" opacity="1.000000" stroke="none" 
	d="
M65.909943,30.758202 
	C62.224632,51.577415 49.484062,59.552475 21.697983,58.509689 
	C19.817135,68.148743 17.919113,77.875816 15.962072,87.905365 
	C11.392520,88.378433 6.898027,88.843735 1.759002,89.375763 
	C7.049753,61.974934 12.172889,35.442188 17.359041,8.583078 
	C25.152876,8.002963 32.782127,7.617093 40.369911,6.830960 
	C54.478603,5.369229 65.872459,15.736073 65.909943,30.758202 
M20.795530,45.438705 
	C28.683369,48.211227 36.457481,48.318356 43.765568,43.840164 
	C50.740944,39.565849 53.613392,30.972261 50.572010,24.422918 
	C48.161270,19.231609 37.552990,15.857837 31.023016,18.404514 
	C30.078079,18.773037 29.180420,20.197592 28.942028,21.283056 
	C27.840267,26.299669 26.885262,31.353907 26.062717,36.424679 
	C25.442230,40.249821 24.835018,43.940845 20.795530,45.438705 
z"/>
<path fill="#F26725" opacity="1.000000" stroke="none" 
	d="
M87.037949,30.849768 
	C98.231766,27.146208 108.960121,27.974636 119.676453,30.986732 
	C116.480843,50.405533 113.340485,69.488548 110.142273,88.923172 
	C107.143539,88.923172 103.226028,88.923172 99.065254,88.923172 
	C99.065254,85.096840 99.065254,81.491150 99.065254,77.224083 
	C98.099243,78.307899 97.460289,79.055084 96.789078,79.772079 
	C94.861160,81.831482 93.147079,84.172745 90.941147,85.874641 
	C84.719246,90.674889 77.675125,92.282608 70.336334,89.019226 
	C63.169601,85.832367 60.513878,79.361626 60.093330,71.983177 
	C59.046528,53.617157 69.374153,37.793236 87.037949,30.849768 
M78.668381,53.335728 
	C77.463608,58.937008 75.313957,64.531624 75.274429,70.141121 
	C75.214417,78.657707 82.616966,81.920448 89.566002,77.008789 
	C91.301872,75.781868 92.937370,74.252151 94.207680,72.553932 
	C101.380867,62.964466 101.980415,51.421539 104.218948,40.348396 
	C93.905357,37.743477 85.831451,41.844639 78.668381,53.335728 
z"/>
<path fill="#F26724" opacity="1.000000" stroke="none" 
	d="
M424.004333,88.955605 
	C420.967590,89.009155 417.930786,89.062706 414.450073,88.623306 
	C413.696564,86.094109 413.386993,84.057861 413.077393,82.021614 
	C413.077393,80.537209 413.077393,79.052803 413.077393,76.828766 
	C410.771454,79.527077 409.050537,81.877991 406.993835,83.884834 
	C400.640961,90.083717 393.083923,92.562912 384.654205,89.190636 
	C376.485962,85.922966 374.115143,78.713036 373.899567,70.564011 
	C373.239166,45.596264 394.133209,26.081694 418.932892,28.543453 
	C422.890778,28.936337 426.827728,29.561794 430.760834,30.167389 
	C431.716003,30.314457 432.617615,30.809263 433.565369,31.151958 
	C430.948425,46.599667 428.355347,61.906513 425.268341,77.778976 
	C424.517761,81.881599 424.261047,85.418602 424.004333,88.955605 
M417.423615,44.038181 
	C418.860229,40.736034 417.266785,39.497372 414.182281,39.355690 
	C413.025085,39.302540 411.848511,39.318798 410.700928,39.463440 
	C395.789520,41.342922 386.073853,59.339558 389.476135,73.185631 
	C390.950897,79.187378 397.533508,81.562439 402.546173,77.404808 
	C406.476349,74.145073 410.086700,69.700958 412.022217,65.030128 
	C414.653595,58.680061 415.553467,51.612495 417.423615,44.038181 
z"/>
<path fill="#F26724" opacity="1.000000" stroke="none" 
	d="
M131.080368,30.005096 
	C140.605652,30.005093 140.548721,30.014042 141.966110,39.030727 
	C143.659515,49.803341 145.462921,60.558659 147.337265,72.048416 
	C148.547470,69.946709 149.568542,68.493408 150.272156,66.899948 
	C155.109390,55.945168 160.028229,45.021893 164.578995,33.948009 
	C165.883911,30.772635 167.516724,29.640875 170.835449,29.940847 
	C174.096161,30.235577 177.404343,30.005102 181.552155,30.005102 
	C178.887863,35.332844 176.605698,40.070103 174.173294,44.728920 
	C165.861023,60.649456 157.840286,76.736618 149.021744,92.372993 
	C143.742249,101.734215 136.388977,109.540993 126.290169,114.171036 
	C124.931396,114.793991 123.560280,115.408035 122.148331,115.889771 
	C121.388733,116.148941 120.530235,116.118233 119.331932,116.265587 
	C118.257095,112.420135 117.204430,108.654022 116.093330,104.678833 
	C123.866707,102.040024 129.828384,97.494377 134.655045,91.279938 
	C137.137955,88.083130 137.547989,84.892998 136.672195,81.031334 
	C133.032272,64.981277 129.597061,48.884762 126.100693,32.802250 
	C125.961533,32.162167 125.964394,31.491213 125.847618,30.280336 
	C127.509468,30.184223 129.057922,30.094667 131.080368,30.005096 
z"/>
<path fill="#F26725" opacity="1.000000" stroke="none" 
	d="
M247.673157,33.629051 
	C248.621307,32.130352 249.389587,30.284859 250.381241,30.155802 
	C253.451996,29.756165 256.607758,30.009726 260.221039,30.009726 
	C259.885040,33.214188 259.601105,35.921886 259.317200,38.629585 
	C259.518829,39.046173 259.720459,39.462761 259.922089,39.879349 
	C265.451874,33.357986 271.150787,27.214132 280.887360,29.232319 
	C280.227356,32.557182 279.922699,36.030899 278.742432,39.176029 
	C278.196198,40.631687 276.055176,42.184982 274.444916,42.429970 
	C265.380066,43.809063 260.942505,50.147762 258.526062,57.830467 
	C256.147400,65.393082 254.689346,73.291855 253.397751,81.137032 
	C252.030884,89.439491 251.216888,89.414764 243.551636,89.289154 
	C241.922852,89.262459 240.293289,89.285263 238.367294,89.285263 
	C241.497665,70.554268 244.546570,52.310852 247.673157,33.629051 
z"/>
<path fill="#F26725" opacity="1.000000" stroke="none" 
	d="
M230.225754,62.260567 
	C228.752396,70.029518 227.276199,77.363258 225.983887,84.729263 
	C225.429794,87.887558 223.954269,89.474350 220.624237,89.145767 
	C219.139572,88.999275 217.625214,89.057541 216.129959,89.133423 
	C212.399689,89.322746 211.133087,87.860184 211.888885,84.027451 
	C215.393524,66.255157 218.714142,48.446575 222.159302,30.342770 
	C226.821945,30.342770 231.385101,30.342770 236.438171,30.342770 
	C234.361008,40.996449 232.329208,51.417435 230.225754,62.260567 
z"/>
<path fill="#F2600F" opacity="1.000000" stroke="none" 
	d="
M424.409943,88.850128 
	C424.261047,85.418602 424.517761,81.881599 425.109436,78.197731 
	C425.234772,81.615463 425.025177,85.180061 424.409943,88.850128 
z"/>
<path fill="#F2600F" opacity="1.000000" stroke="none" 
	d="
M412.994171,82.393433 
	C413.386993,84.057861 413.696564,86.094109 414.001404,88.542953 
	C413.634735,86.892120 413.272827,84.828682 412.994171,82.393433 
z"/>
<path fill="#FFFCFA" opacity="1.000000" stroke="none" 
	d="
M20.520649,45.226784 
	C24.835018,43.940845 25.442230,40.249821 26.062717,36.424679 
	C26.885262,31.353907 27.840267,26.299669 28.942028,21.283056 
	C29.180420,20.197592 30.078079,18.773037 31.023016,18.404514 
	C37.552990,15.857837 48.161270,19.231609 50.572010,24.422918 
	C53.613392,30.972261 50.740944,39.565849 43.765568,43.840164 
	C36.457481,48.318356 28.683369,48.211227 20.520649,45.226784 
z"/>
<path fill="#FFFCFB" opacity="1.000000" stroke="none" 
	d="
M78.839073,53.005554 
	C85.831451,41.844639 93.905357,37.743477 104.218948,40.348396 
	C101.980415,51.421539 101.380867,62.964466 94.207680,72.553932 
	C92.937370,74.252151 91.301872,75.781868 89.566002,77.008789 
	C82.616966,81.920448 75.214417,78.657707 75.274429,70.141121 
	C75.313957,64.531624 77.463608,58.937008 78.839073,53.005554 
z"/>
<path fill="#FFFCFB" opacity="1.000000" stroke="none" 
	d="
M417.309753,44.445400 
	C415.553467,51.612495 414.653595,58.680061 412.022217,65.030128 
	C410.086700,69.700958 406.476349,74.145073 402.546173,77.404808 
	C397.533508,81.562439 390.950897,79.187378 389.476135,73.185631 
	C386.073853,59.339558 395.789520,41.342922 410.700928,39.463440 
	C411.848511,39.318798 413.025085,39.302540 414.182281,39.355690 
	C417.266785,39.497372 418.860229,40.736034 417.309753,44.445400 
z"/>
</svg>